<svg width="480" height="480" viewBox="0 0 480 480" fill="none" xmlns="http://www.w3.org/2000/svg">
  <rect width="480" height="480" rx="72" fill="white"/>
  <g fill="#C9A15B">
    <path d="M240 48L247 70L269 77L247 84L240 106L233 84L211 77L233 70L240 48Z"/>
    <path d="M126 104L131 120L147 125L131 130L126 146L121 130L105 125L121 120L126 104Z"/>
    <path d="M354 104L359 120L375 125L359 130L354 146L349 130L333 125L349 120L354 104Z"/>
    <path d="M92 204L97 220L113 225L97 230L92 246L87 230L71 225L87 220L92 204Z"/>
    <path d="M388 204L393 220L409 225L393 230L388 246L383 230L367 225L383 220L388 204Z"/>
    <path d="M162 176L168 194L186 200L168 206L162 224L156 206L138 200L156 194L162 176Z"/>
    <path d="M318 176L324 194L342 200L324 206L318 224L312 206L294 200L312 194L318 176Z"/>
    <path d="M240 198L246 216L264 222L246 228L240 246L234 228L216 222L234 216L240 198Z"/>
  </g>
  <g transform="translate(180 86)">
    <g fill="#006837">
      <ellipse cx="36" cy="30" rx="15" ry="22" transform="rotate(-26 36 30)"/>
      <ellipse cx="68" cy="30" rx="15" ry="22" transform="rotate(26 68 30)"/>
      <ellipse cx="30" cy="62" rx="16" ry="24" transform="rotate(-74 30 62)"/>
      <ellipse cx="74" cy="62" rx="16" ry="24" transform="rotate(74 74 62)"/>
      <ellipse cx="52" cy="73" rx="16" ry="23"/>
      <path d="M51 70C56.3 78.2 56.5 89.4 53.8 101.2C52.2 108 49.8 113.9 46.8 118.8C45.7 120.6 43.2 119.9 42.9 117.9C41.9 108 42.6 99.7 45.1 90.9C47 84.3 49.5 77 51 70Z"/>
    </g>
    <circle cx="54" cy="46" r="8" fill="white"/>
  </g>
  <g fill="#101D2E">
    <path d="M112 254C85.49 254 64 275.49 64 302C64 328.51 85.49 350 112 350C138.51 350 160 328.51 160 302C160 275.49 138.51 254 112 254ZM112 274C127.46 274 140 286.54 140 302C140 317.46 127.46 330 112 330C96.54 330 84 317.46 84 302C84 286.54 96.54 274 112 274Z"/>
    <path d="M292 254C265.49 254 244 275.49 244 302C244 328.51 265.49 350 292 350C318.51 350 340 328.51 340 302C340 275.49 318.51 254 292 254ZM292 274C307.46 274 320 286.54 320 302C320 317.46 307.46 330 292 330C276.54 330 264 317.46 264 302C264 286.54 276.54 274 292 274Z"/>
    <rect x="171" y="294" width="62" height="16" rx="8"/>
    <rect x="348" y="294" width="68" height="16" rx="8"/>
  </g>
  <text x="240" y="392" text-anchor="middle" fill="#101D2E" font-size="58" font-weight="700" font-family="'Noto Sans KR', 'Malgun Gothic', sans-serif">창세인베스트</text>
</svg>
